# xmcd
#
# Track frame offsets:
#	150
#	12292
#	28855
#	46767
#	58275
#	72725
#	90410
#	102695
#	114305
#	126685
#	144845
#	161952
#	182490
#	196580
#	212605
#	225297
#	239575
#	253637
#	267887
#	280787
#
# Disc length: 3908 seconds
#
# Revision: 1
# Processed by: cddbd v1.5.1PL0 Copyright (c) Steve Scherf et al.
# Submitted via: audiograbber 1.83.01
#
DISCID=210f4214
DTITLE=Charles Aznavour - Sus más grandes éxitos
DYEAR=1900
DGENRE=
TTITLE0=Venecia sin tí
TTITLE1=Quién
TTITLE2=Morir de amor
TTITLE3=Viví
TTITLE4=Yo te daré calor
TTITLE5=Ser
TTITLE6=Junto a tí
TTITLE7=De quererte así
TTITLE8=Y por tanto
TTITLE9=La bohemia
TTITLE10=Pero fue ayer
TTITLE11=Qué solo estoy
TTITLE12=Debes saber
TTITLE13=Y yo en mi rincón
TTITLE14=Ayer aún
TTITLE15=Con
TTITLE16=Te espero
TTITLE17=María cuando te vas
TTITLE18=Apaga la luz
TTITLE19=C'est fini
EXTD=
EXTT0=
EXTT1=
EXTT2=
EXTT3=
EXTT4=
EXTT5=
EXTT6=
EXTT7=
EXTT8=
EXTT9=
EXTT10=
EXTT11=
EXTT12=
EXTT13=
EXTT14=
EXTT15=
EXTT16=
EXTT17=
EXTT18=
EXTT19=
PLAYORDER=
